<?xml version="1.0" standalone="no"?><!DOCTYPE svg PUBLIC "-//W3C//DTD SVG 1.1//EN" "http://www.w3.org/Graphics/SVG/1.1/DTD/svg11.dtd"><svg t="1744024169704" class="icon" viewBox="0 0 1169 1024" version="1.1" xmlns="http://www.w3.org/2000/svg" p-id="2640" xmlns:xlink="http://www.w3.org/1999/xlink" width="228.3203125" height="200"><path d="M1110.98587029 862.78740135c-1.77165351-18.60236192-10.6299211-36.76181133-24.80314921-50.93503943l-65.10826758-65.10826758c-0.88582675-0.88582675-1.77165351-1.32874012-2.2145669-1.7716535 0.44291338-4.42913379 0.88582675-9.30118096 0.88582677-14.17322814 0-78.39566894-63.33661406-141.73228388-141.73228389-141.73228389s-141.73228388 63.33661406-141.73228301 141.73228389 63.33661406 141.73228388 141.73228301 141.732283c6.20078731 0 11.95866123-0.44291338 17.71653514-1.32874013l0.4429134 0.44291337 65.10826845 65.10826846c14.17322813 14.17322813 32.33267753 23.03149569 50.93503858 24.80314922 2.65748027 0.44291338 4.87204717 0.44291338 7.08661493 0.44291338 17.71653516 0 34.10433106-6.64370068 45.62007804-18.15944854l28.34645713-28.34645713c13.28740137-13.28740137 19.48818868-32.33267753 17.71653514-52.70669298zM784.55870477 730.7992127c0-51.37795283 41.63385849-93.01181133 93.01181134-93.01181133s93.01181133 41.63385849 93.01181131 93.01181133-41.63385849 93.01181133-93.01181131 93.01181132-93.01181133-41.63385849-93.01181134-93.01181132z m273.72047256 150.59055146l-28.34645625 28.34645625c-3.98622041 3.98622041-10.18700771 3.98622041-13.73031474 3.98622041-7.52952745-0.88582675-15.50196826-4.87204717-21.25984308-10.6299211L946.6650041 854.81496054c23.47440908-13.28740137 42.96259863-33.2185043 55.80708662-57.13582675l48.72047254 48.72047256c6.20078731 6.20078731 10.18700771 13.73031473 10.6299211 21.25984219 0.88582675 3.54330703 0.88582675 9.74409434-3.54330704 13.73031562zM908.57445349 62c-17.27362177 0-32.33267753 10.18700771-39.86220497 24.80314922-0.44291338 0.44291338-0.44291338 0.88582675-0.88582677 1.32874013l-10.62992109 21.70275645c-0.88582675 1.32874012-1.32874012 2.65748027-2.21456688 3.98622042l-52.70669297 106.29921269-70.42322813 141.28936963h0.44291337l-18.15944941 36.76181133c-11.07283446 21.70275557-1.77165351 48.72047255 19.93110293 59.35039366 21.70275557 11.07283446 48.72047255 1.77165351 59.35039367-19.93110207l70.86614149-143.5039374V509.34251973c0 24.36023584 19.93110204 44.29133877 44.29133876 44.29133876s44.29133877-19.93110204 44.2913379-44.29133876V106.29133877c0-24.36023584-19.93110204-44.29133877-44.2913379-44.29133877zM707.93468933 506.68503945c-21.70275557-11.07283446-48.72047255-1.77165351-59.35039364 19.93110206l-76.18110205 152.80511836L518.81067391 786.60629932 169.35201268 88.13188935c0-0.44291338-0.44291338-0.88582675-0.44291426-1.32874013C161.82248436 72.18700771 146.76342949 62 129.04689433 62 104.6866576 62 84.75555555 81.93110205 84.75555555 106.29133877v788.38582676c0 24.36023584 19.93110204 44.29133877 44.29133878 44.29133877s44.29133877-19.93110204 44.29133877-44.29133877V294.08661406l305.61023583 611.22047256c11.07283446 21.70275557 37.64763808 30.56102402 59.35039365 19.93110205 7.52952745-3.54330703 13.28740137-9.30118096 17.27362178-15.94488164 1.32874012-1.77165351 2.65748027-3.54330703 3.54330703-5.75787393 1.32874012-1.77165351 2.2145669-3.54330703 3.10039367-5.31496055l89.0255909-178.93700771 55.80708662-112.05708661 20.37401545-40.74803176c11.07283446-22.14566895 2.2145669-48.72047255-19.48818869-59.79330702z" p-id="2641"></path></svg>